{"title":"5 Cuttest Girls In Shes So Cute (XXX)(iPod,PSP,Zune)","uid":6252732,"size":530179992,"categoryP":"porn","categoryS":"movies","magnet":"?xt=urn:btih:77373cb244565598b00a2a5b8958c5c0311c0be1&amp;dn=5+Cuttest+Girls+In+Shes+So+Cute+%28XXX%29%28iPod%2CPSP%2CZune%29&amp;tr=udp%3A%2F%2Ftracker.openbittorrent.com%3A80&amp;tr=udp%3A%2F%2Fopen.demonii.com%3A1337&amp;tr=udp%3A%2F%2Ftracker.coppersurfer.tk%3A6969&amp;tr=udp%3A%2F%2Fexodus.desync.com%3A6969","seeders":0,"leechers":1,"uploader":null,"files":6,"time":1300458265,"description":"SCREENSHOTS:\n\nAllie Jordan &lt;a href=&quot;\nhttp://lnk.co/GX24P&quot; rel=&quot;nofollow&quot; target=&quot;_NEW&quot;&gt;\nhttp://lnk.co/GX24P&lt;/a&gt;\n\nEmma Mae &lt;a href=&quot;\nhttp://lnk.co/GX24Q&quot; rel=&quot;nofollow&quot; target=&quot;_NEW&quot;&gt;\nhttp://lnk.co/GX24Q&lt;/a&gt;\n\nGigi Rivera &lt;a href=&quot;\nhttp://lnk.co/GX24S&quot; rel=&quot;nofollow&quot; target=&quot;_NEW&quot;&gt;\nhttp://lnk.co/GX24S&lt;/a&gt;\n\nHayden Winters &lt;a href=&quot;\nhttp://lnk.co/GX24T&quot; rel=&quot;nofollow&quot; target=&quot;_NEW&quot;&gt;\nhttp://lnk.co/GX24T&lt;/a&gt;\n\nTiffany Star &lt;a href=&quot;\nhttp://lnk.co/GX24U&quot; rel=&quot;nofollow&quot; target=&quot;_NEW&quot;&gt;\nhttp://lnk.co/GX24U&lt;/a&gt;\n\nVideo\nID                               : 1\nFormat                           : AVC\nFormat/Info                      : Advanced Video Codec\nFormat profile                   : &lt;a class=&quot;__cf_email__&quot; href=&quot;/cdn-cgi/l/email-protection&quot; data-cfemail=&quot;0a486b796f6663646f4a4638243b&quot;&gt;[email&amp;#160;protected]&lt;/a&gt;&lt;script cf-hash='f9e31' type=&quot;text/javascript&quot;&gt;\n/* &lt;![CDATA[ */!function(){try{var t=&quot;currentScript&quot;in document?document.currentScript:function(){for(var t=document.getElementsByTagName(&quot;script&quot;),e=t.length;e--;)if(t[e].getAttribute(&quot;cf-hash&quot;))return t[e]}();if(t&amp;&amp;t.previousSibling){var e,r,n,i,c=t.previousSibling,a=c.getAttribute(&quot;data-cfemail&quot;);if(a){for(e=&quot;&quot;,r=parseInt(a.substr(0,2),16),n=2;a.length-n;n+=2)i=parseInt(a.substr(n,2),16)^r,e+=String.fromCharCode(i);e=document.createTextNode(e),c.parentNode.replaceChild(e,c)}}}catch(u){}}();/* ]]&gt; */&lt;/script&gt;\nFormat settings, CABAC           : No\nFormat settings, ReFrames        : 2 frames\nCodec ID                         : avc1\nCodec ID/Info                    : Advanced Video Coding\nDuration                         : 2h 30mn\nBit rate mode                    : Variable\nBit rate                         : 400 Kbps\nWidth                            : 480 pixels\nHeight                           : 272 pixels\nDisplay aspect ratio             : 16:9\nFrame rate mode                  : Variable\nFrame rate                       : 23.976 fps\nMinimum frame rate               : 23.974 fps\nMaximum frame rate               : 23.981 fps\nColor space                      : YUV\nChroma subsampling               : 4:2:0\nBit depth                        : 8 bits\nScan type                        : Progressive\nBits/(Pixel*Frame)               : 0.128\nStream size                      : 431 MiB (86%)\nWriting library                  : x264 core 112\n\nAudio\nID                               : 2\nFormat                           : AAC\nFormat/Info                      : Advanced Audio Codec\nFormat profile                   : LC\nCodec ID                         : 40\nDuration                         : 2h 30mn\nBit rate mode                    : Variable\nBit rate                         : 64.2 Kbps\nMaximum bit rate                 : 114 Kbps\nChannel(s)                       : 2 channels\nChannel positions                : Front: L R\nSampling rate                    : 48.0 KHz\nCompression mode                 : Lossy\nStream size                      : 69.2 MiB (14%)\nLanguage                         : English","torrent":{"xt":"urn:btih:77373cb244565598b00a2a5b8958c5c0311c0be1","amp;dn":"5+Cuttest+Girls+In+Shes+So+Cute+%28XXX%29%28iPod%2CPSP%2CZune%29","amp;tr":["udp%3A%2F%2Ftracker.openbittorrent.com%3A80","udp%3A%2F%2Fopen.demonii.com%3A1337","udp%3A%2F%2Ftracker.coppersurfer.tk%3A6969","udp%3A%2F%2Fexodus.desync.com%3A6969"],"infoHash":"77373cb244565598b00a2a5b8958c5c0311c0be1","infoHashBuffer":{"type":"Buffer","data":[119,55,60,178,68,86,85,152,176,10,42,91,137,88,197,192,49,28,11,225]},"announce":[],"urlList":[]}}